<svg width="1080" height="2280" viewBox="0 0 1080 2280" fill="none" xmlns="http://www.w3.org/2000/svg">
<path d="M-25.4007 2037.65L104.021 1829.39L195.126 1930.46L-25.4007 2037.65Z" fill="#255E69"/>
<path d="M862.599 2170.65L992.021 1962.39L1083.13 2063.46L862.599 2170.65Z" fill="#255E69"/>
<path d="M231.45 2209.67L466.78 1824.37L639.032 2015.46L231.45 2209.67Z" fill="#255E69"/>
<path d="M21.4496 1735.67L256.78 1350.37L429.032 1541.46L21.4496 1735.67Z" fill="#255E69"/>
<path d="M-40.5504 1106.67L194.78 721.366L367.032 912.463L-40.5504 1106.67Z" fill="#255E69"/>
<path d="M52.4496 556.67L287.78 171.366L460.032 362.463L52.4496 556.67Z" fill="#255E69"/>
<path d="M622.45 1304.67L857.78 919.366L1030.03 1110.46L622.45 1304.67Z" fill="#255E69"/>
<path d="M758.45 1772.67L993.78 1387.37L1166.03 1578.46L758.45 1772.67Z" fill="#255E69"/>
<path d="M644.599 254.646L774.021 46.391L865.126 147.463L644.599 254.646Z" fill="#255E69"/>
<path d="M456.599 666.646L586.021 458.391L677.126 559.463L456.599 666.646Z" fill="#255E69"/>
<path d="M400.599 1227.65L530.021 1019.39L621.126 1120.46L400.599 1227.65Z" fill="#255E69"/>
<path d="M982.599 796.646L1112.02 588.391L1203.13 689.463L982.599 796.646Z" fill="#255E69"/>
<path d="M526.599 1665.65L656.021 1457.39L747.126 1558.46L526.599 1665.65Z" fill="#255E69"/>
<path d="M-15.4007 165.646L114.021 -42.609L205.126 58.4628L-15.4007 165.646Z" fill="#255E69"/>
<path d="M821.45 607.67L1056.78 222.366L1229.03 413.463L821.45 607.67Z" fill="#255E69"/>
</svg>
